<?xml version="1.0" encoding="UTF-8" standalone="no"?>
<!-- Created with Inkscape (http://www.inkscape.org/) -->

<svg
   version="1.1"
   id="svg2"
   xml:space="preserve"
   width="3966.6667"
   height="2266.6667"
   viewBox="0 0 3966.6667 2266.6667"
   sodipodi:docname="7732651_5278.eps"
   xmlns:inkscape="http://www.inkscape.org/namespaces/inkscape"
   xmlns:sodipodi="http://sodipodi.sourceforge.net/DTD/sodipodi-0.dtd"
   xmlns="http://www.w3.org/2000/svg"
   xmlns:svg="http://www.w3.org/2000/svg"><defs
     id="defs6" /><sodipodi:namedview
     id="namedview4"
     pagecolor="#ffffff"
     bordercolor="#666666"
     borderopacity="1.0"
     inkscape:pageshadow="2"
     inkscape:pageopacity="0.0"
     inkscape:pagecheckerboard="0" /><g
     id="g8"
     inkscape:groupmode="layer"
     inkscape:label="ink_ext_XXXXXX"
     transform="matrix(1.3333333,0,0,-1.3333333,0,2266.6667)"><g
       id="g10"
       transform="scale(0.1)"><path
         d="M 29750,17000 H 0 V 0 h 29750 v 17000"
         style="fill:#ffffff;fill-opacity:1;fill-rule:nonzero;stroke:none"
         id="path12" /><path
         d="m 5419.11,1967.4 c 0,0 -4974.286,4978.6 -1885.2,7955.32 3089.07,2976.78 5530.61,-887.64 7219.09,-602.93 2137.3,360.39 3061.6,5782.61 6256.6,5787.81 3635.3,5.8 6303.6,-2143.2 4882.3,-7261.18 C 20843.6,4071.6 28049.2,7162.8 26990.9,1894 l -21571.79,73.4"
         style="fill:#ebf2f9;fill-opacity:1;fill-rule:nonzero;stroke:none"
         id="path14" /><path
         d="m 16268.4,2614.3 c -676.2,108.9 -1186.7,-128 -1677.6,-59.9 -391.5,54.3 -595.5,450.3 -1121.6,562.5 125.1,73.8 270.9,166.1 340.6,233.2 135.4,130.4 329.8,391.2 0,401.5 -237.3,7.4 -422.2,-387.9 -507.2,-610.3 -77.9,6.5 -162.2,7 -254.1,0.2 108.6,350 320.4,1027.4 372.2,1157.5 70.4,177.1 -225.6,767.5 -574.5,104.9 -244.8,-464.7 -78.6,-1001.8 42.5,-1281.1 -95.6,-15.4 -185.8,-37.6 -272,-64.6 -288.3,657.9 -1205.6,2533.4 -2199.9,2300.3 -1084.05,-254 1238.4,-1514.9 1824.1,-2449.7 C 11762.4,2687 11342,2417.6 10615.2,2614.3 8683.83,3137.2 8530.63,1960.7 8530.63,1960.7 l 8631.07,-2.9 c 0,0 -217.1,547.7 -893.3,656.5"
         style="fill:#acd29a;fill-opacity:1;fill-rule:nonzero;stroke:none"
         id="path16" /><path
         d="m 13920.5,6847.7 c 8.8,-83 126.4,-80 259.2,-60.1 132.8,19.9 98.5,-15 285.3,-11.4 186.7,3.6 249.1,67.4 257.2,94.4 7.3,23.9 -83.3,40.9 -180.3,61.1 -12.2,2.5 -24.4,5.2 -36.7,7.8 -109.3,24 -183.9,102.77 -279,170.57 -90.2,64.22 -150.9,358.54 -150.9,358.54 l -265.5,1.57 c 0,0 83.4,-266.17 126.9,-358.73 25.5,-54.45 -1.7,-124.35 -10.3,-176.75 -4.6,-28.5 -9.1,-57.7 -5.9,-87"
         style="fill:#ffb07b;fill-opacity:1;fill-rule:nonzero;stroke:none"
         id="path18" /><path
         d="m 14179.7,6787.6 c 132.8,19.9 98.5,-15 285.3,-11.4 186.7,3.6 249.1,67.4 257.2,94.4 7.3,23.9 -83.3,40.9 -180.3,61.1 l -1.1,-1.8 c 0,0 -118,-68.5 -272.3,-58.2 -125.7,8.4 -255.3,56.5 -342.1,63 -4.6,-28.5 -9.1,-57.7 -5.9,-87 8.8,-83 126.4,-80 259.2,-60.1"
         style="fill:#365da4;fill-opacity:1;fill-rule:nonzero;stroke:none"
         id="path20" /><path
         d="m 11844.6,6860.9 c 5.8,-83.3 123.3,-84.8 256.8,-69.9 133.5,14.9 97.9,-18.7 284.7,-22.1 186.7,-3.5 251.4,58 260.6,84.6 8.1,23.7 -81.7,44 -177.9,67.9 -12.1,2.9 -24.2,6.1 -36.3,9.2 -108.4,28.1 -180,109.6 -272.5,180.92 -87.6,67.58 -15.5,347.88 -15.5,347.88 l -201.5,95.15 c 0,0 -27.7,-288.89 -42.7,-435 -6.1,-59.83 -35.9,-119.95 -46.4,-172.05 -5.7,-28.3 -11.3,-57.2 -9.3,-86.6"
         style="fill:#ffb07b;fill-opacity:1;fill-rule:nonzero;stroke:none"
         id="path22" /><path
         d="m 12101.4,6791 c 133.5,14.9 97.9,-18.7 284.7,-22.1 186.7,-3.5 251.4,58 260.6,84.6 8.1,23.7 -81.7,44 -177.9,67.9 l -1.1,-1.8 c 0,0 -120.6,-64 -274.4,-47.8 -125.3,13.1 -253,66 -339.4,75.7 -5.7,-28.3 -11.3,-57.2 -9.3,-86.6 5.8,-83.3 123.3,-84.8 256.8,-69.9"
         style="fill:#365da4;fill-opacity:1;fill-rule:nonzero;stroke:none"
         id="path24" /><path
         d="m 12297.2,11020.9 c 0,0 -55.8,-270.2 -111.7,-1640.61 0,0 -103.7,-253.74 -178.9,-563.99 -75.2,-310.25 -128.2,-1604.82 -128.2,-1604.82 0,0 30,-43.22 121,-48.68 74.3,-4.46 132.2,28.13 132.2,28.13 0,0 522.7,1695.57 777.1,2353.84 254.5,658.33 403.6,1598.23 403.6,1598.23 l -1015.1,-122.1"
         style="fill:#2b478b;fill-opacity:1;fill-rule:nonzero;stroke:none"
         id="path26" /><path
         d="m 12925.9,10905.2 c 0,0 41.2,-272.8 463.2,-1577.81 0,0 -9.4,-273.92 27.5,-591.02 36.9,-317.1 464.1,-1565.57 464.1,-1565.57 0,0 56.7,-19.71 141.8,2.75 79.1,20.88 141.2,68.48 141.2,68.48 0,0 -163.8,1784.44 -153,2490.1 10.8,705.67 -174.8,1639.07 -174.8,1639.07 l -910,-466"
         style="fill:#2b478b;fill-opacity:1;fill-rule:nonzero;stroke:none"
         id="path28" /><path
         d="m 13673.3,14684.6 c -66.2,42.1 -147.5,50.4 -204.8,49.9 15.5,14.4 44.7,18.5 44.7,18.5 -35.2,7.1 -115.9,-24.1 -115.9,-24.1 -482.7,214.3 -596.4,-506.6 -594.4,-675.5 1.8,-168.9 -6.6,-362.8 -259.9,-501.5 -498.3,-273 -116.3,-812.1 -116.3,-812.1 -89.7,-257.4 242.4,-572.7 242.4,-572.7 -5.7,136.7 621.8,1007.5 960.1,1206.2 85.6,113.4 124.3,319.3 127.2,335.6 -22,-163.8 -54.7,-254.6 -82.4,-305.3 290.1,241.4 174.6,1169.5 -0.7,1281"
         style="fill:#c65447;fill-opacity:1;fill-rule:nonzero;stroke:none"
         id="path30" /><path
         d="m 13568.1,13466.6 c 1.7,-0.8 -158.2,-83.9 -278.6,-51 -113.2,30.9 -187.2,177.7 -185.6,178 47.9,9.5 61.8,75.4 60.7,358.5 l 21.7,-4.3 351.3,-69.6 13.1,-2.5 c 0,0 -8.3,-114.7 -8.6,-222.8 -0.1,-22.8 0.3,-45.3 1.1,-66.4 2.4,-62.7 9.4,-112.6 24.9,-119.9"
         style="fill:#ffb07b;fill-opacity:1;fill-rule:nonzero;stroke:none"
         id="path32" /><path
         d="m 13542.1,13652.9 c -0.1,-22.8 0.3,-45.3 1.1,-66.4 -204.3,8.2 -322.1,241.9 -366.6,344.4 l 361,-52.7 13.1,-2.5 c 0,0 -8.3,-114.7 -8.6,-222.8"
         style="fill:#ea8e50;fill-opacity:1;fill-rule:nonzero;stroke:none"
         id="path34" /><path
         d="m 13148.7,13987.5 c 0,0 -106.9,168.8 -132.5,313.2 -18.4,103.1 34.1,485.1 418.1,430.1 0,0 111.5,-11 216.3,-81.8 83.4,-56.3 203.7,-177.8 69.1,-511.2 l -34.9,-112.6 -536.1,-37.7"
         style="fill:#c65447;fill-opacity:1;fill-rule:nonzero;stroke:none"
         id="path36" /><path
         d="m 13572.2,13705.9 c 0,0 -478.4,63.2 -434.4,360.5 44,297.3 11.8,505.7 319.1,477.9 307.3,-27.8 349.7,-150 359.2,-252.8 9.4,-102.8 -118.4,-594.4 -243.9,-585.6"
         style="fill:#ffb07b;fill-opacity:1;fill-rule:nonzero;stroke:none"
         id="path38" /><path
         d="m 13675.3,14519.2 c 0,0 -182.6,-329.3 -390.8,-350.9 -208.2,-21.7 -287.1,45 -287.1,45 0,0 172,99.2 235.7,307.7 0,0 368.4,178.8 442.2,-1.8"
         style="fill:#c65447;fill-opacity:1;fill-rule:nonzero;stroke:none"
         id="path40" /><path
         d="m 13638.7,14495.7 c 0,0 86,-92.4 98.5,-171.6 12.5,-79.3 0,-236.7 46.2,-238.2 0,0 133.7,222.4 43.1,373 -96.1,159.6 -187.8,36.8 -187.8,36.8"
         style="fill:#c65447;fill-opacity:1;fill-rule:nonzero;stroke:none"
         id="path42" /><path
         d="m 16815.4,10456.7 c -100.4,212.5 -379.4,388.4 -614.4,388.5 -173.6,0 -326.7,-59.2 -445.2,-155.7 -67.8,-55.2 -169.9,-18.8 -188.3,66.6 l -205.8,955.9 c -30,139.4 -167.3,228.1 -306.7,198.1 l -3329.1,-716.5 c -136.2,-29.3 -222.8,-163.5 -193.5,-299.7 l 715.7,-3325.46 c 20.5,-95.12 90.3,-166.88 176.7,-194.45 l -43.7,-12.39 h 129.3 l 1,0.19 c 15.8,0.46 31.8,2.28 47.9,5.73 l 72.4,15.6 v 0 0 l 854.5,183.89 c 119.9,25.8 168.5,170.86 88,263.34 -77.9,89.33 -133.9,199.97 -157.7,325.31 -67.3,353.19 151.1,703.05 498.1,797.07 386,104.58 775.8,-136.38 858.9,-522.32 31.2,-145.19 14.5,-289.53 -39.6,-416.51 -21,-49.33 -3.7,-100.56 32.4,-129.76 l -49.8,-24.32 115.5,0.07 v 0.01 c 8.6,-0.21 17.5,0.53 26.6,2.49 l 1020.2,219.57 c 139.5,30.02 228.2,167.39 198.2,306.83 l -204.5,950 c -18.9,87.91 61.3,164.96 148.4,142.58 100.7,-25.88 208.8,-29.37 317.3,-6.01 426.9,91.88 676.5,559.14 477.2,981.34"
         style="fill:#d86713;fill-opacity:1;fill-rule:nonzero;stroke:none"
         id="path44" /><path
         d="m 16083.4,10845.2 c -173.6,0 -326.7,-59.2 -445.2,-155.7 -67.7,-55.2 -169.9,-18.8 -188.3,66.6 l -205.7,955.9 c -30,139.4 -167.3,228.1 -306.7,198.1 l -3329.1,-716.5 c -136.2,-29.3 -222.9,-163.5 -193.5,-299.7 l 715.7,-3325.46 c 30.4,-141.4 169.7,-231.35 311.1,-200.92 l 926.9,199.49 c 119.9,25.8 168.6,170.86 88,263.34 -77.8,89.33 -133.8,199.97 -157.7,325.31 -67.2,353.18 151.1,703.05 498.2,797.07 386,104.58 775.8,-136.38 858.8,-522.32 31.3,-145.2 14.5,-289.53 -39.6,-416.51 -35.1,-82.51 37.1,-170.37 124.8,-151.51 l 1020.2,219.57 c 139.4,30.02 228.1,167.39 198.1,306.83 l -204.4,950 c -19,87.91 61.2,164.96 148.3,142.58 100.7,-25.88 208.8,-29.37 317.4,-6.01 426.9,91.88 676.4,559.14 477.1,981.34 -100.4,212.5 -379.3,388.4 -614.4,388.5"
         style="fill:#f1a34f;fill-opacity:1;fill-rule:nonzero;stroke:none"
         id="path46" /><path
         d="m 14865.3,12109.4 c 0,0 207.7,-34 262.1,-169 54.4,-135.1 -21.6,-226.5 -50.8,-226.2 -29.2,0.3 -85.3,21.9 -111.5,92 -26.3,70 -99.8,303.2 -99.8,303.2"
         style="fill:#ffb07b;fill-opacity:1;fill-rule:nonzero;stroke:none"
         id="path48" /><path
         d="m 12006.6,11506.9 c 0,0 233.1,0.3 317,-137.5 83.8,-137.8 17.3,-251.5 -14.7,-256.4 -32,-4.9 -97.2,8.6 -138.5,80.4 -41.3,71.8 -163.8,313.5 -163.8,313.5"
         style="fill:#ffb07b;fill-opacity:1;fill-rule:nonzero;stroke:none"
         id="path50" /><path
         d="m 14871.1,11952.7 c -20.6,4.4 -111,15 -225.9,33.1 -211.7,33.2 -506.7,91.7 -605.7,183 -26.8,24.8 -89.3,161.2 -154.2,317.6 -65.6,-346.2 -69.3,-611.8 -51.9,-814 L 12403,11364.6 c 122.6,247.9 312.5,555.4 276.9,804.2 -13.2,92.2 -63.8,218.8 -82.7,361 -1.5,12.2 -2.9,24.5 -4,36.9 -200.6,-165.2 -432.3,-347.4 -437.9,-383.8 -9.2,-61.1 147,-737.3 147,-737.3 -38.8,-89.3 -207.3,-70.5 -207.3,-70.5 -157.8,112.7 -390,751.5 -371.4,893 18.6,141.5 594.2,948 733.5,1140.7 137.6,190.5 640,185.7 652.1,185.6 h 0.1 c 0.1,0 0.1,0 0.2,0 399.5,-239.9 435.5,-40.5 435.5,-40.5 0,0 360.5,-68.5 422.4,-175 62,-106.5 333.7,-914 352.9,-942.4 40.2,-59.5 696.9,-297.4 708.7,-366.3 11.9,-68.9 -99,-130 -157.9,-117.5"
         style="fill:#80bdcc;fill-opacity:1;fill-rule:nonzero;stroke:none"
         id="path52" /><path
         d="m 12901.7,11471.4 -498.7,-106.8 c 124.2,247.3 287.4,555.2 251.7,802.5 -13.3,92.3 -43.3,201.5 -57.7,344.4 -1.4,13.7 -3.8,55.2 -3.8,55.2 0,0 353.2,-278 359.4,-578.8 3.3,-156.1 -24,-360.2 -50.9,-516.5"
         style="fill:#5f9aa8;fill-opacity:1;fill-rule:nonzero;stroke:none"
         id="path54" /><path
         d="m 14658.4,11984 c -214.2,33.2 -512.9,91.7 -613.1,183 -27.1,24.9 -90.4,161.4 -156.1,318 0,0 -23,251.7 42.8,242.3 65.8,-9.4 162.6,-455.8 231.7,-484 61.8,-25.3 403.6,-156.5 494.7,-259.3"
         style="fill:#5f9aa8;fill-opacity:1;fill-rule:nonzero;stroke:none"
         id="path56" /><path
         d="m 25211,2394.8 c -30.2,-101.8 -169.6,-169.6 -188.4,-294 -9.2,-60.7 -31.8,-107.8 -60.6,-140.2 h -434 c 4.4,23.9 23.4,49.6 79.8,61.9 120.6,26.4 166,172.5 158.6,308.2 -3.2,56.8 -1.7,121.7 1.1,177.8 3.8,77.7 10.2,138.7 10.2,138.7 l 256.2,60.3 26.9,-34.6 25.8,-33.3 c 0,0 154.5,-143.1 124.4,-244.8"
         style="fill:#2c3a64;fill-opacity:1;fill-rule:nonzero;stroke:none"
         id="path58" /><path
         d="m 23190,1960.6 h -878.1 c 19.9,23.3 53.6,45.8 110.7,55.1 135.1,21.9 369.1,100.3 421.3,273.1 1.7,5.5 3.2,11.2 4.5,17 41.4,184.6 342.9,-56.6 342.9,-56.6 0,0 0.9,-7.4 2.3,-19.9 5.3,-52 17,-193 -3.6,-268.7"
         style="fill:#2c3a64;fill-opacity:1;fill-rule:nonzero;stroke:none"
         id="path60" /><path
         d="m 22458.5,6852.3 c 0,0 45.7,-571.2 99.6,-1257.8 73.1,-932.7 161,-2078.4 169.7,-2295.4 15.1,-376.9 75.4,-979.7 75.4,-979.7 0,0 143.1,-143.2 429.6,-82.9 0,0 255.2,860.6 328.2,1771.1 1.1,15 2.2,30 3.4,45 67.8,927 173.2,2878.8 173.2,2878.8 l -1279.1,-79.1"
         style="fill:#35488b;fill-opacity:1;fill-rule:nonzero;stroke:none"
         id="path62" /><path
         d="m 22458.5,6852.3 c 0,0 45.7,-571.2 99.6,-1257.8 L 23561,4007.6 c 1.1,15 2.2,30 3.4,45 67.8,927 173.2,2878.8 173.2,2878.8 l -1279.1,-79.1"
         style="fill:#2c3a64;fill-opacity:1;fill-rule:nonzero;stroke:none"
         id="path64" /><path
         d="m 22667.5,6784.5 c 0,0 825.2,-2068.7 1367.8,-3040.8 542.6,-972.2 712.2,-1243.5 712.2,-1243.5 0,0 310.9,124.4 339.1,209.2 0,0 -207.5,1876.8 -570.8,2334.3 -205.4,258.5 -446.6,1034.3 -457.9,1305.6 -11.3,271.3 -73.4,808.23 -73.4,808.23 l -1317,-373.03"
         style="fill:#35488b;fill-opacity:1;fill-rule:nonzero;stroke:none"
         id="path66" /><path
         d="m 23090.8,9977.66 c -36.7,216.64 -37.9,345.04 -37.9,345.04 l 418.7,337.4 c -15.5,-463.9 281.8,-687.05 281.8,-687.05 0,0 -558,-274.64 -880.5,-172.92 0,0 79.4,101.48 217.9,177.53"
         style="fill:#935c2f;fill-opacity:1;fill-rule:nonzero;stroke:none"
         id="path68" /><path
         d="m 22954.3,10330.4 c 0,0 532.7,-88.5 582.7,244 50,332.6 152.4,545.1 -185.6,615.7 -337.9,70.5 -423.2,-46.4 -466.9,-153.3 -43.7,-107 -67.4,-674.9 69.8,-706.4"
         style="fill:#a16d3c;fill-opacity:1;fill-rule:nonzero;stroke:none"
         id="path70" /><path
         d="m 21083.6,9644.82 -113.4,70.21 c 0,0 -141.4,208.72 -382.9,79.04 0,0 -95.6,-60.98 -31.5,-112.06 64.3,-51.06 47,-22.21 135.9,-96.19 89,-73.97 204,-100.4 278.3,-59.62 l 95.2,9 18.4,109.62"
         style="fill:#a16d3c;fill-opacity:1;fill-rule:nonzero;stroke:none"
         id="path72" /><path
         d="m 20949,9622.95 c 29.2,91.38 43.1,99.44 43.1,99.44 0,0 917,-108.36 1003.5,-114.75 86.4,-6.4 1287.1,240.98 1287.1,240.98 l 566.9,-688.42 c 0,0 -1671.5,-63.02 -1890.2,-42.53 -361.5,33.87 -1017.1,370.43 -1017.1,370.43 0,0 -16.3,63.08 6.7,134.85"
         style="fill:#d3782f;fill-opacity:1;fill-rule:nonzero;stroke:none"
         id="path74" /><path
         d="m 24047.4,7051.82 c 1.6,-35.53 -71.6,-74.52 -103.4,-88.82 -239.4,-107.3 -462.3,-181.9 -714.2,-206.1 -298.8,-30.7 -651.9,36.5 -773,34.9 -13,0 -24.2,4.8 -33.9,12.9 -8.1,6.5 -14.6,371.47 -8.1,831.64 0,17.76 0,37.21 1.6,54.98 v 6.39 c 0.5,47.93 1.2,96.63 2.3,145.79 3,134.49 8,272.56 13.9,409.78 8.7,202.27 20.7,401.07 37.4,577.19 17.4,183.94 39.4,343.25 67.5,456.23 64.6,259.98 213.2,431.22 348.8,557.17 l 111.4,98.41 c 111.4,-22.56 229.4,-16.07 347.2,42.01 127.6,63.01 266.5,130.81 289,114.71 172.2,-128.72 288.1,-420.84 347.5,-792.1 32,-199.81 47.6,-422.48 46.7,-655.01 -0.3,-89.18 -3.1,-179.7 -8.2,-271.06 -28.8,-490.34 0.7,-915.46 17.6,-1162.55 4.9,-71.05 8.8,-127.55 9.9,-166.46"
         style="fill:#e69d43;fill-opacity:1;fill-rule:nonzero;stroke:none"
         id="path76" /><path
         d="m 21215.8,11584.7 -3368.4,535 c -143.3,22.7 -277.8,-74.9 -300.6,-218.1 l -149.1,-938.9 c -6.9,-43.5 4.2,-165.7 4.2,-165.7 l 121.4,-18.1 c 6.9,-1.5 13.9,-2.5 21,-3.1 v 0 0 c 22,-1.8 44.9,1 67.8,9.2 111.7,40.5 235.4,52.8 361.2,29.7 354.6,-65 602.7,-395.9 564.9,-754.4 -42,-398.78 -408.4,-676.01 -799.3,-613.93 -147.1,23.36 -276,91.31 -375.1,187.87 -19.2,18.73 -42.4,28.62 -65.7,31.02 v 0 l -127.1,19.07 -158.2,-1145.27 c -22.4,-141.25 73.9,-273.92 215.2,-296.36 l 962.2,-152.83 c 89.1,-14.13 132.1,-117 79.6,-190.33 -60.6,-84.79 -103,-184.6 -120.5,-294.56 -68.7,-432.42 277.8,-834.88 744.7,-801.38 235.1,16.8 500.6,213.96 585.8,433.72 62.9,162.29 62.9,326.9 15.6,472.62 -27.1,83.31 44,165.68 130.5,151.93 l 968.2,-153.76 c 141.2,-22.44 273.9,73.84 296.3,215.03 l 535.5,3372.16 c 21.9,137.9 -72.1,267.5 -210.1,289.4"
         style="fill:#4a75cb;fill-opacity:1;fill-rule:nonzero;stroke:none"
         id="path78" /><path
         d="m 23646.3,9316.87 c 0,0 -258.2,-1204.94 -1227.6,-1473.37 3,134.49 8,272.56 13.9,409.78 8.7,202.27 20.7,401.07 37.4,577.19 17.3,8.93 33.5,15.89 48.4,20.78 328.9,108.47 1127.9,465.62 1127.9,465.62"
         style="fill:#d3782f;fill-opacity:1;fill-rule:nonzero;stroke:none"
         id="path80" /><path
         d="m 19355.2,7256.12 c 62.9,162.29 63,326.89 15.7,472.62 -27.1,83.31 43.9,165.66 130.5,151.93 l 968.2,-153.78 c 141.2,-22.42 273.8,73.87 296.2,215.04 l 535.6,3372.17 c 21.9,137.9 -72.2,267.5 -210.1,289.4 l -3368.5,535 c -143.2,22.7 -277.7,-74.9 -300.5,-218.1 l -149.1,-938.9 c -19.3,-121.5 98.7,-219.5 214.4,-177.7 111.6,40.5 235.4,52.7 361.2,29.7 354.6,-65 602.6,-395.9 564.9,-754.4 -42,-398.78 -408.4,-676 -799.4,-613.92 -147,23.36 -275.9,91.29 -375.1,187.87 -64.4,62.75 -172.7,27.03 -186.8,-61.79 l -164.1,-1033.4 c -22.4,-141.24 73.9,-273.93 215.1,-296.36 l 962.3,-152.83 c 89,-14.14 132.1,-117 79.6,-190.33 -60.7,-84.8 -103.1,-184.59 -120.5,-294.57 -68.7,-432.41 277.8,-834.87 744.7,-801.37 235.1,16.8 500.6,213.97 585.7,433.72"
         style="fill:#699dee;fill-opacity:1;fill-rule:nonzero;stroke:none"
         id="path82" /><path
         d="m 21087.5,8867.96 -138.5,22.91 c 0,0 -157.9,228.48 -433.1,100.3 0,0 -109.1,-61.04 -36.9,-118.18 72.1,-57.15 52.9,-25.65 152.9,-108.25 99.9,-82.61 230.1,-115.59 314.6,-75.22 l 108,5.62 33,172.82"
         style="fill:#a16d3c;fill-opacity:1;fill-rule:nonzero;stroke:none"
         id="path84" /><path
         d="m 20981.6,8797.58 c 4.5,101.91 58.8,112.78 58.8,112.78 0,0 1049.1,69.4 1139.6,86.94 90.5,17.56 926.1,709.87 926.1,709.87 0,0 323.1,290.43 549.5,192.43 196.8,-85.16 258.4,-253.17 268.3,-407.69 11.8,-184.13 -92.1,-356.26 -259.3,-434.33 -375.2,-175.28 -1125.7,-519.34 -1296.6,-549.02 -380.4,-66.06 -1358.2,145.69 -1358.2,145.69 0,0 -31.7,63.28 -28.2,143.33"
         style="fill:#e69d43;fill-opacity:1;fill-rule:nonzero;stroke:none"
         id="path86" /><path
         d="m 22884.5,11036.8 c 0,0 -216.2,160.3 -75.2,409.3 0,0 170,-56.3 411.6,0 241.6,56.4 457.8,-23.5 486,-108 0,0 94,-37.7 103.4,-178.6 9.4,-141 -273.3,-585.1 -273.3,-585.1 0,0 -60.4,75.2 -44,126.9 16.5,51.7 68.2,166.8 4.7,166.8 -63.4,0 -84.5,-94 -110.4,-56.4 -25.8,37.6 21.2,195 -54,220.9 -75.2,25.8 -364.2,-43.4 -448.8,4.2"
         style="fill:#2c3a64;fill-opacity:1;fill-rule:nonzero;stroke:none"
         id="path88" /><path
         d="m 15536.7,2080.6 -952.2,4323.3 h 262.1 c 62.2,0 113,50.8 113,113 v 146 c 0,62.1 -50.8,112.9 -113,112.9 h -3324.9 c -62.1,0 -112.9,-50.8 -112.9,-112.9 v -146 c 0,-62.2 50.8,-113 112.9,-113 h 337.5 L 10907,2080.6 c -12.8,-58.1 24.1,-116.2 82,-129 58,-12.9 115.9,24.2 128.7,82.3 l 962.5,4370 h 2283.3 l 962.5,-4370 c 12.8,-58.1 70.7,-95.2 128.6,-82.3 v 0 c 58,12.8 94.9,70.9 82.1,129"
         style="fill:#c3e0f4;fill-opacity:1;fill-rule:nonzero;stroke:none"
         id="path90" /><path
         d="m 21851.1,4728.2 c -352.5,338.3 -1621.2,-1796.5 -1621.2,-1796.5 0,0 1973.6,1458.1 1621.2,1796.5"
         style="fill:#acd29a;fill-opacity:1;fill-rule:nonzero;stroke:none"
         id="path92" /><path
         d="m 21808.8,3741.3 c -312,124.8 -1309.1,-926.4 -1533.7,-1169.1 -171.8,22.8 -360.3,37.6 -566.9,41.3 -1578.9,28.2 -2295.1,-686.9 -2295.1,-686.9 l 4404.5,-15 c 0,0 -390.1,495.4 -1497,654.3 270.5,127.7 1070.4,499.8 1361.3,571.3 352.5,86.7 479.3,463.2 126.9,604.1"
         style="fill:#acd29a;fill-opacity:1;fill-rule:nonzero;stroke:none"
         id="path94" /><path
         d="m 20566.5,5883.9 h -950.7 c -123,0 -201.3,-131.9 -141.8,-239.5 57.4,-104 -144.7,-1004.9 -570.5,-1028.4 -400.4,-22.1 -731.7,297.4 -731.7,693.2 0,148.9 46.9,286.9 126.7,399.9 51.9,73.5 -0.4,174.8 -90.3,174.8 h -1046.4 c -143,0 -258.9,-115.9 -258.9,-258.9 0,0 -94.9,-1123.1 -175.5,-1082.8 -83.1,41.5 -175.7,66.8 -273.7,71.8 l 0.1,0.1 h -1 c -11.7,0.6 -23.4,0.9 -35.3,0.9 -11.8,0 -184.1,3 -184.1,3 l -26.1,-1387.9 149.6,-1.6 c 142.2,4.3 265.7,17.6 375.5,73.5 78,39.8 170.5,-17.4 170.5,-105 v -980.4 c 0,-142.9 115.9,-258.8 258.8,-258.8 h 3414.4 c 139.7,0 252.9,113.2 252.9,252.9 v 3410.7 c 0,145 -117.5,262.5 -262.5,262.5"
         style="fill:#d86713;fill-opacity:1;fill-rule:nonzero;stroke:none"
         id="path96" /><path
         d="m 16079,3246.3 c 170.2,-36.7 332.7,-10.9 469.2,58.7 78.1,39.8 170.6,-17.5 170.6,-105.1 v -980.3 c 0,-143 115.9,-258.9 258.8,-258.9 H 20392 c 139.7,0 252.9,113.2 252.9,252.9 v 3410.7 c 0,145 -117.5,262.6 -262.5,262.6 h -950.7 c -123,0 -201.3,-131.9 -141.8,-239.6 57.4,-104 89,-224.3 85.9,-352.1 -8.6,-360.4 -296.4,-657.3 -656.4,-676.3 -400.4,-21 -731.7,297.4 -731.7,693.2 0,148.9 46.9,286.9 126.7,399.9 51.9,73.5 -0.4,174.9 -90.3,174.9 h -1046.4 c -143,0 -258.9,-116 -258.9,-259 v -974.3 c 0,-90.2 -94.9,-148.8 -175.5,-108.5 -93.3,46.6 -198.5,72.9 -309.9,72.9 -437.8,0 -780.9,-405.4 -674.6,-861.3 53.5,-229.5 289.8,-460.8 520.2,-510.4"
         style="fill:#f1a34f;fill-opacity:1;fill-rule:nonzero;stroke:none"
         id="path98" /><path
         d="m 6192.93,1941.6 613.66,-4.5 c 0,0 -21.35,148.5 -434.44,186.8 v 0 c -160.15,444.8 -630.63,1641.5 -1039.18,1585 -403.38,-55.9 551.96,-1153.8 940.61,-1580.7 -54.99,-0.1 -106.25,-4.5 -153.56,-12.1 -93.62,186.4 -279.26,449.9 -577.19,437.9 -317.07,-12.8 114.9,-302.4 412.3,-480.2 -150.64,-54 -231.99,-128.8 -231.99,-128.8 l 462.82,-3.4 c 5.45,-2.9 8.4,-4.5 8.4,-4.5 0,0 -0.48,1.6 -1.43,4.5"
         style="fill:#acd29a;fill-opacity:1;fill-rule:nonzero;stroke:none"
         id="path100" /><path
         d="m 8385.47,6900.4 90.79,-73.7 c 0,0 248.39,89.1 304.44,-206.1 0,0 14.93,-125.8 -64.75,-126 -79.68,-0.3 -46.81,13.7 -159.64,10.4 -112.83,-3.3 -206.35,56.2 -222.88,147.8 l -53.98,77.6 106.02,170"
         style="fill:#ea8e50;fill-opacity:1;fill-rule:nonzero;stroke:none"
         id="path102" /><path
         d="m 8375.2,6742.2 c 72.43,75.6 66.6,131.5 66.6,131.5 0,0 -838.83,686.79 -923.9,742.75 -57.97,38.12 -675.73,585.79 -964.5,919.66 -143.23,165.62 -320.66,101.35 -523.65,43.11 l -167.17,-47.96 c -201.86,-57.91 -254.36,-340.23 -88.73,-477.42 466.45,-386.36 1242.42,-820.94 1387.6,-912.26 360.43,-226.78 1065.94,-496.18 1065.94,-496.18 0,0 85.6,31.8 147.81,96.8"
         style="fill:#1e3d70;fill-opacity:1;fill-rule:nonzero;stroke:none"
         id="path104" /><path
         d="m 9356.89,2529.9 c 0,0 203.57,-152.5 515.49,-72 0,0 251.52,57.4 306.62,-68.1 0,0 -385.67,-195.9 -483.28,-249.5 -73.55,-40.4 -150.32,-104.1 -204.59,-153.4 -42.95,-39 -109.85,-33.7 -146.46,11.3 -16.97,20.8 -36.39,45.7 -57.67,74.5 -59.46,80.6 -198.04,340.9 -198.04,340.9 l 267.93,116.3"
         style="fill:#233862;fill-opacity:1;fill-rule:nonzero;stroke:none"
         id="path106" /><path
         d="m 9451.95,2600.3 c 0,0 -123.96,-285.8 -410.09,-233.3 0,0 -583.88,482.2 -984.38,983.1 -130.07,162.7 -240.82,327.4 -305.9,478.1 C 7486,4443.1 6769.17,5360.2 6313.41,5825 l 1140.28,412.5 c 0,0 365.24,-734.7 851.19,-1637.2 350.23,-650.2 763.03,-1387.6 1147.07,-2000"
         style="fill:#2b478b;fill-opacity:1;fill-rule:nonzero;stroke:none"
         id="path108" /><path
         d="m 8304.88,4600.3 -247.4,-1250.2 c -130.07,162.7 -240.82,327.4 -305.9,478.1 C 7486,4443.1 6769.17,5360.2 6313.41,5825 l 1140.28,412.5 c 0,0 365.24,-734.7 851.19,-1637.2"
         style="fill:#233862;fill-opacity:1;fill-rule:nonzero;stroke:none"
         id="path110" /><path
         d="m 7369.84,2367.7 c 0,0 -12.43,-228 264.06,-258.5 0,0 157.99,-0.8 158.44,-145.9 l -803.57,-2.6 c 0,0 -23.33,58.6 -28.99,184 -4.35,96.3 93.35,348.1 93.35,348.1 l 316.71,-125.1"
         style="fill:#233862;fill-opacity:1;fill-rule:nonzero;stroke:none"
         id="path112" /><path
         d="m 7079.68,6237.5 c 0,0 507.98,-558.2 830.44,-1563.8 175.44,-547.1 -321.57,-1922.8 -418.46,-2400.7 0,0 -333.41,-28.3 -561.38,59.8 0,0 -17.32,987.2 116.01,1748.1 74.61,425.8 -668.85,910.7 -993.71,1680.1 -221,523.4 47.86,514.5 378.27,527.1 l 648.83,-50.6"
         style="fill:#2b478b;fill-opacity:1;fill-rule:nonzero;stroke:none"
         id="path114" /><path
         d="m 6493.27,8727.78 c -282.63,-159.59 -861.22,-12.41 -861.22,-12.41 0,0 234.97,268.63 128.2,701.26 l 221.91,-112.69 238.37,-121.06 c 0,0 15.4,-76.41 26.12,-213.64 2.73,-35.34 5.17,-74.82 6.86,-117.95 145.11,-44 239.76,-123.51 239.76,-123.51"
         style="fill:#ffb07b;fill-opacity:1;fill-rule:nonzero;stroke:none"
         id="path116" /><path
         d="m 7529.62,6266.3 c 0,-49.6 -57.22,-73.4 -69.38,-75.8 -113.98,-20.9 -432.27,-144.7 -719,-173.1 -241.43,-25.3 -465.59,-1.2 -711.85,48.2 -32.6,6.6 -109.16,27.2 -114.6,58.4 -6.79,34.2 -949.87,1922.58 -216.73,2733.76 17.21,19.03 161.93,-15.24 294.27,-46.65 122.22,-28.99 234.33,-12.83 334.45,27.33 l 124.11,-65.31 c 152.41,-84.93 440.81,-386.67 474.55,-623.43 17.14,-120.41 86,-209.57 105.92,-315.49 7.4,-39.19 14.96,-77.46 22.65,-114.75 15.02,-73.15 30.51,-142.76 46.43,-208.97 43.11,-179.07 88.63,-333.23 133.33,-466.41 47.56,-141.38 94.21,-258.98 135.88,-357.38 54.05,-127.6 99.73,-223 128.27,-296 20.16,-51.4 31.7,-91.7 31.7,-124.4"
         style="fill:#2a4e96;fill-opacity:1;fill-rule:nonzero;stroke:none"
         id="path118" /><path
         d="M 7497.92,6390.7 C 6166.65,7017.96 5705.6,8222.33 5705.6,8222.33 c 0,0 1081.62,-398.99 1348.41,-502.87 15.02,-73.15 30.51,-142.76 46.43,-208.97 43.11,-179.07 88.63,-333.23 133.33,-466.41 47.56,-141.38 94.21,-258.98 135.88,-357.38 54.05,-127.6 99.73,-223 128.27,-296"
         style="fill:#1e3d70;fill-opacity:1;fill-rule:nonzero;stroke:none"
         id="path120" /><path
         d="m 11258.3,7724.67 -285.2,904.22 c -27.7,87.81 -118.5,129.38 -197.9,107.05 v 0 l -0.2,-0.06 c -4.2,-1.2 -8.4,-2.64 -12.5,-4.19 l -100,-33.4 c 0,0 -156.6,-161.21 -268.9,-193.72 -345.4,-99.93 -673.23,84.15 -799.24,420.88 -140.16,374.54 22.45,785.82 398.93,904.55 128.81,40.62 382.31,-35.08 382.31,-35.08 l 101.8,33.82 c 55.3,16.81 93.2,76.45 73.5,139.05 L 10237,10963 c -42.9,136.1 -187.9,211.6 -323.97,168.7 l -926.75,-292.3 c -85.77,-27 -169.96,45.6 -155.81,134.4 16.36,102.7 9.74,210.6 -23.65,316.5 -131.34,416.5 -619.83,621.3 -1021.57,383.4 -202.26,-119.7 -351.33,-413.9 -329.46,-647.9 16.16,-172.9 89.43,-319.8 196.58,-428.7 61.26,-62.3 34.56,-167.5 -48.76,-193.7 l -932.51,-294.1 c -135.97,-42.9 -211.43,-187.9 -168.55,-323.87 L 7526.76,6537.7 c 41.89,-132.8 183.55,-206.5 316.4,-164.6 l 3244.14,1023.05 c 137.9,43.5 214.5,190.58 171,328.52"
         style="fill:#4a75cb;fill-opacity:1;fill-rule:nonzero;stroke:none"
         id="path122" /><path
         d="m 7357.1,10992.9 c 16.16,-172.9 89.43,-319.8 196.59,-428.7 61.25,-62.3 34.55,-167.4 -48.77,-193.7 l -932.5,-294.1 c -135.97,-42.9 -211.44,-187.89 -168.56,-323.87 L 7428.07,6504.8 c 41.89,-132.8 183.55,-206.5 316.4,-164.6 l 3244.13,1023.06 c 138,43.5 214.5,190.58 171,328.52 l -285.2,904.21 c -36.9,116.98 -185.8,151.9 -270.4,63.04 -81.6,-85.82 -186.6,-151.91 -309.1,-187.37 -345.4,-99.92 -714.13,84.81 -840.14,421.54 -140.16,374.54 63.36,785.18 439.85,903.91 141.59,44.66 286.89,41.44 418.39,-0.57 85.4,-27.3 166.2,52.82 139.2,138.36 l -313.9,995.3 c -42.9,136 -187.93,211.5 -323.95,168.6 l -926.76,-292.3 c -85.76,-27 -169.96,45.6 -155.81,134.4 16.35,102.7 9.74,210.6 -23.66,316.5 -131.34,416.5 -619.8,621.3 -1021.55,383.5 -202.27,-119.8 -351.35,-414 -329.47,-648"
         style="fill:#699dee;fill-opacity:1;fill-rule:nonzero;stroke:none"
         id="path124" /><path
         d="m 8276.81,6754.2 115.04,-42.2 c 0,0 230.38,162.9 373.79,-102 0,0 51.89,-115.7 -30.23,-140.8 -82.13,-25.2 -52.27,-1.5 -167.7,-40 -115.42,-38.4 -229.14,-10.7 -272.74,71.7 l -78.18,57.4 60.02,195.9"
         style="fill:#ffb07b;fill-opacity:1;fill-rule:nonzero;stroke:none"
         id="path126" /><path
         d="m 8371.48,6591.5 c 42.54,111 61.97,161.3 61.97,161.3 0,0 -869.27,708.52 -957.83,769.29 -60.37,41.41 -661.23,490.55 -954.17,840.58 -145.32,173.62 -374.44,252.99 -596.04,206.53 l -182.47,-38.27 c -220.34,-46.21 -291.93,-325.1 -121.01,-471.62 481.39,-412.69 1293.3,-891.34 1444.68,-990.89 C 7442.42,6821.3 8273.65,6475 8273.65,6475 c 0,0 64.44,29.4 97.83,116.5"
         style="fill:#2a4e96;fill-opacity:1;fill-rule:nonzero;stroke:none"
         id="path128" /><path
         d="m 6246.65,8969.24 c -277.92,-15.61 -458.66,213.87 -458.66,213.87 0,0 125.65,69.6 194.17,120.83 l 238.37,-121.06 c 0,0 15.4,-76.41 26.12,-213.64"
         style="fill:#ea8e50;fill-opacity:1;fill-rule:nonzero;stroke:none"
         id="path130" /><path
         d="m 6365.06,9254.59 c 0,0 -421.11,-302.21 -605.27,-37.06 -184.16,265.15 -362.54,404.71 -101.46,608.87 261.09,204.2 384.16,139.65 467.15,66.11 83,-73.55 344.37,-552.48 239.58,-637.92"
         style="fill:#ffb07b;fill-opacity:1;fill-rule:nonzero;stroke:none"
         id="path132" /><path
         d="m 6169.97,10132 c -15.1,101.9 -49.07,173.6 -49.07,173.6 0,0 -26.43,-109.5 -226.49,-94.4 -200.05,15.1 -517.13,-19.6 -622.83,-247.61 -6.73,-14.51 -12.72,-29.45 -18.04,-44.72 -19.14,50.54 -23.75,126.33 -23.75,126.33 -38.01,-98.19 0,-220.96 0,-220.96 h 0.01 c -0.56,-3.57 -1.04,-7.16 -1.56,-10.75 -44.14,-37.33 -81.23,-153.36 -81.23,-153.36 13.33,32.34 45.82,53.47 74.8,66.48 -0.9,-177.39 71.03,-350.81 197.3,-402.44 184.65,-75.49 183.18,-17.9 368.88,-141.06 0,0 49.8,61.79 15.84,103.32 -33.99,41.52 -162.32,101.91 -90.6,162.31 71.72,60.39 98.14,-7.55 124.56,33.97 26.43,41.53 -105.68,162.32 64.17,275.55 169.87,113.24 283.11,271.84 268.01,373.74"
         style="fill:#233862;fill-opacity:1;fill-rule:nonzero;stroke:none"
         id="path134" /><path
         d="m 17010.6,1959.1 c 0,0 -213,314.8 -546.2,289.4 -101.3,-7.7 -265.9,-32.4 -457.1,-58.7 -144.2,503.2 -541.6,1699.2 -1077.7,1766.6 -547.4,68.7 523.9,-1261.4 962,-1782.2 -79.9,-10.5 -162.9,-20.8 -246.6,-29.9 -232,247.7 -636.2,614.6 -973.7,586.4 -338.3,-28.3 295.1,-378.1 752.4,-606.9 -280.6,-21 -546.6,-18.7 -709.1,44.1 -398.1,153.9 -764,-208.8 -764,-208.8 h 3060"
         style="fill:#82b378;fill-opacity:1;fill-rule:nonzero;stroke:none"
         id="path136" /><path
         d="M 27720.8,1892.4 H 2029.22 c -16.04,0 -29.17,13.1 -29.17,29.2 v 9.9 c 0,16.1 13.13,29.2 29.17,29.2 H 27720.8 c 16,0 29.2,-13.1 29.2,-29.2 v -9.9 c 0,-16.1 -13.2,-29.2 -29.2,-29.2"
         style="fill:#2e3552;fill-opacity:1;fill-rule:nonzero;stroke:none"
         id="path138" /></g></g></svg>
